<?xml version="1.0" encoding="UTF-8" standalone="no"?>
<!DOCTYPE svg PUBLIC "-//W3C//DTD SVG 1.1//EN"
 "http://www.w3.org/Graphics/SVG/1.1/DTD/svg11.dtd">
<!-- Generated by graphviz version 2.47.0 (20210316.0004)
 -->
<!-- Title: dependencies Pages: 1 -->
<svg width="1344pt" height="211pt"
 viewBox="0.00 0.00 1344.00 211.00" xmlns="http://www.w3.org/2000/svg" xmlns:xlink="http://www.w3.org/1999/xlink">
<g id="graph0" class="graph" transform="scale(1 1) rotate(0) translate(4 207)">
<title>dependencies</title>
<polygon fill="white" stroke="transparent" points="-4,4 -4,-207 1340,-207 1340,4 -4,4"/>
<text text-anchor="start" x="647.01" y="-42.4" font-family="Times-12" font-weight="bold" font-size="14.00">Legend</text>
<polygon fill="#ffffb3" stroke="transparent" points="434,-10 434,-30 454,-30 454,-10 434,-10"/>
<text text-anchor="start" x="457.63" y="-15.4" font-family="Times-12" font-size="14.00"> &#160;Declarations</text>
<polygon fill="#8dd3c7" stroke="transparent" points="547,-10 547,-30 567,-30 567,-10 547,-10"/>
<text text-anchor="start" x="570.73" y="-15.4" font-family="Times-12" font-size="14.00"> &#160;Module</text>
<polygon fill="#80b1d3" stroke="transparent" points="633,-10 633,-30 653,-30 653,-10 633,-10"/>
<text text-anchor="start" x="656.78" y="-15.4" font-family="Times-12" font-size="14.00"> &#160;Bootstrap</text>
<polygon fill="#fdb462" stroke="transparent" points="730,-10 730,-30 750,-30 750,-10 730,-10"/>
<text text-anchor="start" x="753.67" y="-15.4" font-family="Times-12" font-size="14.00"> &#160;Providers</text>
<polygon fill="#fb8072" stroke="transparent" points="826,-10 826,-30 846,-30 846,-10 826,-10"/>
<text text-anchor="start" x="849.73" y="-15.4" font-family="Times-12" font-size="14.00"> &#160;Exports</text>
<g id="clust1" class="cluster">
<title>cluster_AppModule</title>
<polygon fill="none" stroke="black" stroke-dasharray="1,5" points="8,-70 8,-195 1328,-195 1328,-70 8,-70"/>
</g>
<g id="clust6" class="cluster">
<title>cluster_AppModule_providers</title>
<polygon fill="none" stroke="black" points="684,-78 684,-130 1320,-130 1320,-78 684,-78"/>
</g>
<g id="clust3" class="cluster">
<title>cluster_AppModule_imports</title>
<polygon fill="none" stroke="black" points="16,-78 16,-130 676,-130 676,-78 16,-78"/>
</g>
<!-- AuthModule -->
<g id="node1" class="node">
<title>AuthModule</title>
<polygon fill="#8dd3c7" stroke="black" points="667.55,-122 664.55,-126 643.55,-126 640.55,-122 580.45,-122 580.45,-86 667.55,-86 667.55,-122"/>
<text text-anchor="middle" x="624" y="-99.8" font-family="Times,serif" font-size="14.00">AuthModule</text>
</g>
<!-- AppModule -->
<g id="node6" class="node">
<title>AppModule</title>
<polygon fill="#8dd3c7" stroke="black" points="557.66,-187 554.66,-191 533.66,-191 530.66,-187 474.34,-187 474.34,-151 557.66,-151 557.66,-187"/>
<text text-anchor="middle" x="516" y="-164.8" font-family="Times,serif" font-size="14.00">AppModule</text>
</g>
<!-- AuthModule&#45;&gt;AppModule -->
<g id="edge1" class="edge">
<title>AuthModule&#45;&gt;AppModule</title>
<path fill="none" stroke="black" d="M624,-122.24C624,-137.57 624,-157 624,-157 624,-157 567.76,-157 567.76,-157"/>
<polygon fill="black" stroke="black" points="567.76,-153.5 557.76,-157 567.76,-160.5 567.76,-153.5"/>
</g>
<!-- LoginModule -->
<g id="node2" class="node">
<title>LoginModule</title>
<polygon fill="#8dd3c7" stroke="black" points="562.49,-122 559.49,-126 538.49,-126 535.49,-122 469.51,-122 469.51,-86 562.49,-86 562.49,-122"/>
<text text-anchor="middle" x="516" y="-99.8" font-family="Times,serif" font-size="14.00">LoginModule</text>
</g>
<!-- LoginModule&#45;&gt;AppModule -->
<g id="edge2" class="edge">
<title>LoginModule&#45;&gt;AppModule</title>
<path fill="none" stroke="black" d="M516,-122.11C516,-122.11 516,-140.99 516,-140.99"/>
<polygon fill="black" stroke="black" points="512.5,-140.99 516,-150.99 519.5,-140.99 512.5,-140.99"/>
</g>
<!-- RoadWorthinessModule -->
<g id="node3" class="node">
<title>RoadWorthinessModule</title>
<polygon fill="#8dd3c7" stroke="black" points="451.36,-122 448.36,-126 427.36,-126 424.36,-122 298.64,-122 298.64,-86 451.36,-86 451.36,-122"/>
<text text-anchor="middle" x="375" y="-99.8" font-family="Times,serif" font-size="14.00">RoadWorthinessModule</text>
</g>
<!-- RoadWorthinessModule&#45;&gt;AppModule -->
<g id="edge3" class="edge">
<title>RoadWorthinessModule&#45;&gt;AppModule</title>
<path fill="none" stroke="black" d="M375,-122.24C375,-137.57 375,-157 375,-157 375,-157 464.08,-157 464.08,-157"/>
<polygon fill="black" stroke="black" points="464.08,-160.5 474.08,-157 464.08,-153.5 464.08,-160.5"/>
</g>
<!-- UsersModule -->
<g id="node4" class="node">
<title>UsersModule</title>
<polygon fill="#8dd3c7" stroke="black" points="280.92,-122 277.92,-126 256.92,-126 253.92,-122 189.08,-122 189.08,-86 280.92,-86 280.92,-122"/>
<text text-anchor="middle" x="235" y="-99.8" font-family="Times,serif" font-size="14.00">UsersModule</text>
</g>
<!-- UsersModule&#45;&gt;AppModule -->
<g id="edge4" class="edge">
<title>UsersModule&#45;&gt;AppModule</title>
<path fill="none" stroke="black" d="M250.24,-122.02C250.24,-139.37 250.24,-163 250.24,-163 250.24,-163 464.18,-163 464.18,-163"/>
<polygon fill="black" stroke="black" points="464.18,-166.5 474.18,-163 464.18,-159.5 464.18,-166.5"/>
</g>
<!-- UsersModule&#45;&gt;AppModule -->
<g id="edge5" class="edge">
<title>UsersModule&#45;&gt;AppModule</title>
<path fill="none" stroke="black" d="M219.76,-122.11C219.76,-141.34 219.76,-169 219.76,-169 219.76,-169 464.18,-169 464.18,-169"/>
<polygon fill="black" stroke="black" points="464.18,-172.5 474.18,-169 464.18,-165.5 464.18,-172.5"/>
</g>
<!-- VehicleLicenceModule -->
<g id="node5" class="node">
<title>VehicleLicenceModule</title>
<polygon fill="#8dd3c7" stroke="black" points="171.88,-122 168.88,-126 147.88,-126 144.88,-122 24.12,-122 24.12,-86 171.88,-86 171.88,-122"/>
<text text-anchor="middle" x="98" y="-99.8" font-family="Times,serif" font-size="14.00">VehicleLicenceModule</text>
</g>
<!-- VehicleLicenceModule&#45;&gt;AppModule -->
<g id="edge6" class="edge">
<title>VehicleLicenceModule&#45;&gt;AppModule</title>
<path fill="none" stroke="black" d="M73.44,-122.09C73.44,-145.13 73.44,-182 73.44,-182 73.44,-182 463.97,-182 463.97,-182"/>
<polygon fill="black" stroke="black" points="463.97,-185.5 473.97,-182 463.97,-178.5 463.97,-185.5"/>
</g>
<!-- VehicleLicenceModule&#45;&gt;AppModule -->
<g id="edge7" class="edge">
<title>VehicleLicenceModule&#45;&gt;AppModule</title>
<path fill="none" stroke="black" d="M122.56,-122.28C122.56,-143.32 122.56,-175 122.56,-175 122.56,-175 464.27,-175 464.27,-175"/>
<polygon fill="black" stroke="black" points="464.27,-178.5 474.27,-175 464.27,-171.5 464.27,-178.5"/>
</g>
<!-- AppService -->
<g id="node7" class="node">
<title>AppService</title>
<ellipse fill="#fdb462" stroke="black" cx="1255" cy="-104" rx="56.74" ry="18"/>
<text text-anchor="middle" x="1255" y="-99.8" font-family="Times,serif" font-size="14.00">AppService</text>
</g>
<!-- AppService&#45;&gt;AppModule -->
<g id="edge8" class="edge">
<title>AppService&#45;&gt;AppModule</title>
<path fill="none" stroke="black" d="M1255,-122.09C1255,-145.13 1255,-182 1255,-182 1255,-182 567.85,-182 567.85,-182"/>
<polygon fill="black" stroke="black" points="567.85,-178.5 557.85,-182 567.85,-185.5 567.85,-178.5"/>
</g>
<!-- LoginService -->
<g id="node8" class="node">
<title>LoginService</title>
<ellipse fill="#fdb462" stroke="black" cx="1117" cy="-104" rx="63.12" ry="18"/>
<text text-anchor="middle" x="1117" y="-99.8" font-family="Times,serif" font-size="14.00">LoginService</text>
</g>
<!-- LoginService&#45;&gt;AppModule -->
<g id="edge9" class="edge">
<title>LoginService&#45;&gt;AppModule</title>
<path fill="none" stroke="black" d="M1117,-122.28C1117,-143.32 1117,-175 1117,-175 1117,-175 567.78,-175 567.78,-175"/>
<polygon fill="black" stroke="black" points="567.78,-171.5 557.78,-175 567.78,-178.5 567.78,-171.5"/>
</g>
<!-- UsersService -->
<g id="node9" class="node">
<title>UsersService</title>
<ellipse fill="#fdb462" stroke="black" cx="974" cy="-104" rx="61.95" ry="18"/>
<text text-anchor="middle" x="974" y="-99.8" font-family="Times,serif" font-size="14.00">UsersService</text>
</g>
<!-- UsersService&#45;&gt;AppModule -->
<g id="edge10" class="edge">
<title>UsersService&#45;&gt;AppModule</title>
<path fill="none" stroke="black" d="M974,-122.11C974,-141.34 974,-169 974,-169 974,-169 567.86,-169 567.86,-169"/>
<polygon fill="black" stroke="black" points="567.86,-165.5 557.86,-169 567.86,-172.5 567.86,-165.5"/>
</g>
<!-- VehicleLicenceService -->
<g id="node10" class="node">
<title>VehicleLicenceService</title>
<ellipse fill="#fdb462" stroke="black" cx="793" cy="-104" rx="100.66" ry="18"/>
<text text-anchor="middle" x="793" y="-99.8" font-family="Times,serif" font-size="14.00">VehicleLicenceService</text>
</g>
<!-- VehicleLicenceService&#45;&gt;AppModule -->
<g id="edge11" class="edge">
<title>VehicleLicenceService&#45;&gt;AppModule</title>
<path fill="none" stroke="black" d="M793,-122.02C793,-139.37 793,-163 793,-163 793,-163 567.77,-163 567.77,-163"/>
<polygon fill="black" stroke="black" points="567.77,-159.5 557.77,-163 567.77,-166.5 567.77,-159.5"/>
</g>
</g>
</svg>
