<?xml version="1.0" encoding="UTF-8" standalone="no"?>
<!DOCTYPE svg PUBLIC "-//W3C//DTD SVG 1.1//EN"
 "http://www.w3.org/Graphics/SVG/1.1/DTD/svg11.dtd">
<!-- Generated by graphviz version 2.47.0 (20210316.0004)
 -->
<!-- Title: dependencies Pages: 1 -->
<svg width="1434pt" height="306pt"
 viewBox="0.00 0.00 1434.00 306.00" xmlns="http://www.w3.org/2000/svg" xmlns:xlink="http://www.w3.org/1999/xlink">
<g id="graph0" class="graph" transform="scale(1 1) rotate(0) translate(4 302)">
<title>dependencies</title>
<polygon fill="white" stroke="transparent" points="-4,4 -4,-302 1430,-302 1430,4 -4,4"/>
<text text-anchor="start" x="692.01" y="-42.4" font-family="Times-12" font-weight="bold" font-size="14.00">Legend</text>
<polygon fill="#ffffb3" stroke="transparent" points="479,-10 479,-30 499,-30 499,-10 479,-10"/>
<text text-anchor="start" x="502.63" y="-15.4" font-family="Times-12" font-size="14.00"> &#160;Declarations</text>
<polygon fill="#8dd3c7" stroke="transparent" points="592,-10 592,-30 612,-30 612,-10 592,-10"/>
<text text-anchor="start" x="615.73" y="-15.4" font-family="Times-12" font-size="14.00"> &#160;Module</text>
<polygon fill="#80b1d3" stroke="transparent" points="678,-10 678,-30 698,-30 698,-10 678,-10"/>
<text text-anchor="start" x="701.78" y="-15.4" font-family="Times-12" font-size="14.00"> &#160;Bootstrap</text>
<polygon fill="#fdb462" stroke="transparent" points="775,-10 775,-30 795,-30 795,-10 775,-10"/>
<text text-anchor="start" x="798.67" y="-15.4" font-family="Times-12" font-size="14.00"> &#160;Providers</text>
<polygon fill="#fb8072" stroke="transparent" points="871,-10 871,-30 891,-30 891,-10 871,-10"/>
<text text-anchor="start" x="894.73" y="-15.4" font-family="Times-12" font-size="14.00"> &#160;Exports</text>
<g id="clust1" class="cluster">
<title>cluster_AppModule</title>
<polygon fill="none" stroke="black" stroke-dasharray="1,5" points="298,-70 298,-290 960,-290 960,-70 298,-70"/>
</g>
<g id="clust3" class="cluster">
<title>cluster_AppModule_imports</title>
<polygon fill="none" stroke="black" points="398,-154 398,-282 952,-282 952,-154 398,-154"/>
</g>
<g id="clust6" class="cluster">
<title>cluster_AppModule_providers</title>
<polygon fill="none" stroke="black" points="306,-78 306,-130 942,-130 942,-78 306,-78"/>
</g>
<g id="clust7" class="cluster">
<title>cluster_AuthModule</title>
<polygon fill="none" stroke="black" stroke-dasharray="1,5" points="8,-146 8,-214 290,-214 290,-146 8,-146"/>
</g>
<g id="clust12" class="cluster">
<title>cluster_AuthModule_providers</title>
<polygon fill="none" stroke="black" points="16,-154 16,-206 282,-206 282,-154 16,-154"/>
</g>
<g id="clust13" class="cluster">
<title>cluster_LoginModule</title>
<polygon fill="none" stroke="black" stroke-dasharray="1,5" points="968,-222 968,-290 1094,-290 1094,-222 968,-222"/>
</g>
<g id="clust16" class="cluster">
<title>cluster_LoginModule_exports</title>
<polygon fill="none" stroke="black" points="976,-230 976,-282 1086,-282 1086,-230 976,-230"/>
</g>
<g id="clust19" class="cluster">
<title>cluster_RoadWorthinessModule</title>
<polygon fill="none" stroke="black" stroke-dasharray="1,5" points="968,-70 968,-138 1208,-138 1208,-70 968,-70"/>
</g>
<g id="clust24" class="cluster">
<title>cluster_RoadWorthinessModule_providers</title>
<polygon fill="none" stroke="black" points="976,-78 976,-130 1200,-130 1200,-78 976,-78"/>
</g>
<g id="clust25" class="cluster">
<title>cluster_UsersModule</title>
<polygon fill="none" stroke="black" stroke-dasharray="1,5" points="1102,-222 1102,-290 1228,-290 1228,-222 1102,-222"/>
</g>
<g id="clust28" class="cluster">
<title>cluster_UsersModule_exports</title>
<polygon fill="none" stroke="black" points="1110,-230 1110,-282 1220,-282 1220,-230 1110,-230"/>
</g>
<g id="clust31" class="cluster">
<title>cluster_VehicleLicenceModule</title>
<polygon fill="none" stroke="black" stroke-dasharray="1,5" points="1236,-222 1236,-290 1418,-290 1418,-222 1236,-222"/>
</g>
<g id="clust34" class="cluster">
<title>cluster_VehicleLicenceModule_exports</title>
<polygon fill="none" stroke="black" points="1244,-230 1244,-282 1410,-282 1410,-230 1244,-230"/>
</g>
<!-- AuthModule -->
<g id="node1" class="node">
<title>AuthModule</title>
<polygon fill="#8dd3c7" stroke="black" points="495.55,-274 492.55,-278 471.55,-278 468.55,-274 408.45,-274 408.45,-238 495.55,-238 495.55,-274"/>
<text text-anchor="middle" x="452" y="-251.8" font-family="Times,serif" font-size="14.00">AuthModule</text>
</g>
<!-- AppModule -->
<g id="node6" class="node">
<title>AppModule</title>
<polygon fill="#8dd3c7" stroke="black" points="389.66,-274 386.66,-278 365.66,-278 362.66,-274 306.34,-274 306.34,-238 389.66,-238 389.66,-274"/>
<text text-anchor="middle" x="348" y="-251.8" font-family="Times,serif" font-size="14.00">AppModule</text>
</g>
<!-- AuthModule&#45;&gt;AppModule -->
<g id="edge1" class="edge">
<title>AuthModule&#45;&gt;AppModule</title>
<path fill="none" stroke="black" d="M408.2,-262C408.2,-262 399.76,-262 399.76,-262"/>
<polygon fill="black" stroke="black" points="399.76,-258.5 389.76,-262 399.76,-265.5 399.76,-258.5"/>
</g>
<!-- LoginModule -->
<g id="node2" class="node">
<title>LoginModule</title>
<polygon fill="#8dd3c7" stroke="black" points="944.49,-198 941.49,-202 920.49,-202 917.49,-198 851.51,-198 851.51,-162 944.49,-162 944.49,-198"/>
<text text-anchor="middle" x="898" y="-175.8" font-family="Times,serif" font-size="14.00">LoginModule</text>
</g>
<!-- LoginModule&#45;&gt;AuthModule -->
<g id="edge12" class="edge">
<title>LoginModule&#45;&gt;AuthModule</title>
<path fill="none" stroke="black" d="M898,-198.03C898,-218.77 898,-250 898,-250 898,-250 505.58,-250 505.58,-250"/>
<polygon fill="black" stroke="black" points="505.58,-246.5 495.58,-250 505.58,-253.5 505.58,-246.5"/>
</g>
<!-- LoginModule&#45;&gt;AppModule -->
<g id="edge2" class="edge">
<title>LoginModule&#45;&gt;AppModule</title>
<path fill="none" stroke="black" d="M874.75,-198.24C874.75,-213.57 874.75,-233 874.75,-233 874.75,-233 382.97,-233 382.97,-233 382.97,-233 382.97,-233.49 382.97,-233.49"/>
<polygon fill="black" stroke="black" points="379.47,-227.88 382.97,-237.88 386.47,-227.88 379.47,-227.88"/>
</g>
<!-- LoginService  -->
<g id="node13" class="node">
<title>LoginService </title>
<polygon fill="#fb8072" stroke="black" points="1078.42,-274 983.58,-274 983.58,-238 1078.42,-238 1078.42,-274"/>
<text text-anchor="middle" x="1031" y="-251.8" font-family="Times,serif" font-size="14.00">LoginService </text>
</g>
<!-- LoginModule&#45;&gt;LoginService  -->
<g id="edge15" class="edge">
<title>LoginModule&#45;&gt;LoginService </title>
<path fill="none" stroke="black" stroke-dasharray="5,2" d="M921.25,-198.2C921.25,-222.36 921.25,-262 921.25,-262 921.25,-262 973.5,-262 973.5,-262"/>
<polygon fill="black" stroke="black" points="973.5,-265.5 983.5,-262 973.5,-258.5 973.5,-265.5"/>
</g>
<!-- RoadWorthinessModule -->
<g id="node3" class="node">
<title>RoadWorthinessModule</title>
<polygon fill="#8dd3c7" stroke="black" points="833.36,-198 830.36,-202 809.36,-202 806.36,-198 680.64,-198 680.64,-162 833.36,-162 833.36,-198"/>
<text text-anchor="middle" x="757" y="-175.8" font-family="Times,serif" font-size="14.00">RoadWorthinessModule</text>
</g>
<!-- RoadWorthinessModule&#45;&gt;AppModule -->
<g id="edge3" class="edge">
<title>RoadWorthinessModule&#45;&gt;AppModule</title>
<path fill="none" stroke="black" d="M757,-198.15C757,-211.74 757,-228 757,-228 757,-228 376.11,-228 376.11,-228 376.11,-228 376.11,-228.98 376.11,-228.98"/>
<polygon fill="black" stroke="black" points="372.61,-227.79 376.11,-237.79 379.61,-227.79 372.61,-227.79"/>
</g>
<!-- UsersModule -->
<g id="node4" class="node">
<title>UsersModule</title>
<polygon fill="#8dd3c7" stroke="black" points="497.92,-198 494.92,-202 473.92,-202 470.92,-198 406.08,-198 406.08,-162 497.92,-162 497.92,-198"/>
<text text-anchor="middle" x="452" y="-175.8" font-family="Times,serif" font-size="14.00">UsersModule</text>
</g>
<!-- UsersModule&#45;&gt;AppModule -->
<g id="edge4" class="edge">
<title>UsersModule&#45;&gt;AppModule</title>
<path fill="none" stroke="black" d="M406.08,-180C378.48,-180 348.67,-180 348.67,-180 348.67,-180 348.67,-227.99 348.67,-227.99"/>
<polygon fill="black" stroke="black" points="345.17,-227.99 348.67,-237.99 352.17,-227.99 345.17,-227.99"/>
</g>
<!-- UsersModule&#45;&gt;AppModule -->
<g id="edge5" class="edge">
<title>UsersModule&#45;&gt;AppModule</title>
<path fill="none" stroke="black" d="M406.03,-189C381.18,-189 355.53,-189 355.53,-189 355.53,-189 355.53,-227.69 355.53,-227.69"/>
<polygon fill="black" stroke="black" points="352.03,-227.69 355.53,-237.69 359.03,-227.69 352.03,-227.69"/>
</g>
<!-- UsersService  -->
<g id="node15" class="node">
<title>UsersService </title>
<polygon fill="#fb8072" stroke="black" points="1211.85,-274 1118.15,-274 1118.15,-238 1211.85,-238 1211.85,-274"/>
<text text-anchor="middle" x="1165" y="-251.8" font-family="Times,serif" font-size="14.00">UsersService </text>
</g>
<!-- UsersModule&#45;&gt;UsersService  -->
<g id="edge18" class="edge">
<title>UsersModule&#45;&gt;UsersService </title>
<path fill="none" stroke="black" stroke-dasharray="5,2" d="M466.59,-198.21C466.59,-203.55 466.59,-208 466.59,-208 466.59,-208 1155.34,-208 1155.34,-208 1155.34,-208 1155.34,-227.85 1155.34,-227.85"/>
<polygon fill="black" stroke="black" points="1151.84,-227.85 1155.34,-237.85 1158.84,-227.85 1151.84,-227.85"/>
</g>
<!-- VehicleLicenceModule -->
<g id="node5" class="node">
<title>VehicleLicenceModule</title>
<polygon fill="#8dd3c7" stroke="black" points="662.88,-198 659.88,-202 638.88,-202 635.88,-198 515.12,-198 515.12,-162 662.88,-162 662.88,-198"/>
<text text-anchor="middle" x="589" y="-175.8" font-family="Times,serif" font-size="14.00">VehicleLicenceModule</text>
</g>
<!-- VehicleLicenceModule&#45;&gt;AppModule -->
<g id="edge6" class="edge">
<title>VehicleLicenceModule&#45;&gt;AppModule</title>
<path fill="none" stroke="black" d="M552.15,-198.11C552.15,-207.9 552.15,-218 552.15,-218 552.15,-218 362.39,-218 362.39,-218 362.39,-218 362.39,-227.89 362.39,-227.89"/>
<polygon fill="black" stroke="black" points="358.89,-227.89 362.39,-237.89 365.89,-227.89 358.89,-227.89"/>
</g>
<!-- VehicleLicenceModule&#45;&gt;AppModule -->
<g id="edge7" class="edge">
<title>VehicleLicenceModule&#45;&gt;AppModule</title>
<path fill="none" stroke="black" d="M589,-198.49C589,-210.14 589,-223 589,-223 589,-223 369.25,-223 369.25,-223 369.25,-223 369.25,-227.96 369.25,-227.96"/>
<polygon fill="black" stroke="black" points="365.75,-227.96 369.25,-237.96 372.75,-227.96 365.75,-227.96"/>
</g>
<!-- VehicleLicenceService  -->
<g id="node16" class="node">
<title>VehicleLicenceService </title>
<polygon fill="#fb8072" stroke="black" points="1401.81,-274 1252.19,-274 1252.19,-238 1401.81,-238 1401.81,-274"/>
<text text-anchor="middle" x="1327" y="-251.8" font-family="Times,serif" font-size="14.00">VehicleLicenceService </text>
</g>
<!-- VehicleLicenceModule&#45;&gt;VehicleLicenceService  -->
<g id="edge20" class="edge">
<title>VehicleLicenceModule&#45;&gt;VehicleLicenceService </title>
<path fill="none" stroke="black" stroke-dasharray="5,2" d="M625.85,-198.12C625.85,-200.97 625.85,-203 625.85,-203 625.85,-203 1327,-203 1327,-203 1327,-203 1327,-227.76 1327,-227.76"/>
<polygon fill="black" stroke="black" points="1323.5,-227.76 1327,-237.76 1330.5,-227.76 1323.5,-227.76"/>
</g>
<!-- AppService -->
<g id="node7" class="node">
<title>AppService</title>
<ellipse fill="#fdb462" stroke="black" cx="371" cy="-104" rx="56.74" ry="18"/>
<text text-anchor="middle" x="371" y="-99.8" font-family="Times,serif" font-size="14.00">AppService</text>
</g>
<!-- AppService&#45;&gt;AppModule -->
<g id="edge8" class="edge">
<title>AppService&#45;&gt;AppModule</title>
<path fill="none" stroke="black" d="M321.24,-112.61C321.24,-112.61 321.24,-227.86 321.24,-227.86"/>
<polygon fill="black" stroke="black" points="317.74,-227.86 321.24,-237.86 324.74,-227.86 317.74,-227.86"/>
</g>
<!-- LoginService -->
<g id="node8" class="node">
<title>LoginService</title>
<ellipse fill="#fdb462" stroke="black" cx="871" cy="-104" rx="63.12" ry="18"/>
<text text-anchor="middle" x="871" y="-99.8" font-family="Times,serif" font-size="14.00">LoginService</text>
</g>
<!-- LoginService&#45;&gt;LoginModule -->
<g id="edge16" class="edge">
<title>LoginService&#45;&gt;LoginModule</title>
<path fill="none" stroke="black" d="M892.78,-121.25C892.78,-121.25 892.78,-151.76 892.78,-151.76"/>
<polygon fill="black" stroke="black" points="889.28,-151.76 892.78,-161.76 896.28,-151.76 889.28,-151.76"/>
</g>
<!-- LoginService&#45;&gt;AppModule -->
<g id="edge9" class="edge">
<title>LoginService&#45;&gt;AppModule</title>
<path fill="none" stroke="black" d="M816.44,-113.32C816.44,-125.69 816.44,-146 816.44,-146 816.44,-146 341.82,-146 341.82,-146 341.82,-146 341.82,-227.84 341.82,-227.84"/>
<polygon fill="black" stroke="black" points="338.32,-227.84 341.82,-237.84 345.32,-227.84 338.32,-227.84"/>
</g>
<!-- UsersService -->
<g id="node9" class="node">
<title>UsersService</title>
<ellipse fill="#fdb462" stroke="black" cx="508" cy="-104" rx="61.95" ry="18"/>
<text text-anchor="middle" x="508" y="-99.8" font-family="Times,serif" font-size="14.00">UsersService</text>
</g>
<!-- UsersService&#45;&gt;UsersModule -->
<g id="edge19" class="edge">
<title>UsersService&#45;&gt;UsersModule</title>
<path fill="none" stroke="black" d="M480.48,-120.49C480.48,-120.49 480.48,-151.95 480.48,-151.95"/>
<polygon fill="black" stroke="black" points="476.98,-151.95 480.48,-161.95 483.98,-151.95 476.98,-151.95"/>
</g>
<!-- UsersService&#45;&gt;AppModule -->
<g id="edge10" class="edge">
<title>UsersService&#45;&gt;AppModule</title>
<path fill="none" stroke="black" d="M463.25,-116.7C463.25,-123.3 463.25,-130 463.25,-130 463.25,-130 328.1,-130 328.1,-130 328.1,-130 328.1,-227.95 328.1,-227.95"/>
<polygon fill="black" stroke="black" points="324.6,-227.95 328.1,-237.95 331.6,-227.95 324.6,-227.95"/>
</g>
<!-- VehicleLicenceService -->
<g id="node10" class="node">
<title>VehicleLicenceService</title>
<ellipse fill="#fdb462" stroke="black" cx="689" cy="-104" rx="100.66" ry="18"/>
<text text-anchor="middle" x="689" y="-99.8" font-family="Times,serif" font-size="14.00">VehicleLicenceService</text>
</g>
<!-- VehicleLicenceService&#45;&gt;VehicleLicenceModule -->
<g id="edge21" class="edge">
<title>VehicleLicenceService&#45;&gt;VehicleLicenceModule</title>
<path fill="none" stroke="black" d="M637.94,-119.75C637.94,-119.75 637.94,-151.87 637.94,-151.87"/>
<polygon fill="black" stroke="black" points="634.44,-151.87 637.94,-161.87 641.44,-151.87 634.44,-151.87"/>
</g>
<!-- VehicleLicenceService&#45;&gt;AppModule -->
<g id="edge11" class="edge">
<title>VehicleLicenceService&#45;&gt;AppModule</title>
<path fill="none" stroke="black" d="M613.18,-115.89C613.18,-125.7 613.18,-138 613.18,-138 613.18,-138 334.96,-138 334.96,-138 334.96,-138 334.96,-227.82 334.96,-227.82"/>
<polygon fill="black" stroke="black" points="331.46,-227.82 334.96,-237.82 338.46,-227.82 331.46,-227.82"/>
</g>
<!-- AuthService -->
<g id="node11" class="node">
<title>AuthService</title>
<ellipse fill="#fdb462" stroke="black" cx="215" cy="-180" rx="59.11" ry="18"/>
<text text-anchor="middle" x="215" y="-175.8" font-family="Times,serif" font-size="14.00">AuthService</text>
</g>
<!-- AuthService&#45;&gt;AuthModule -->
<g id="edge13" class="edge">
<title>AuthService&#45;&gt;AuthModule</title>
<path fill="none" stroke="black" d="M266.48,-171C320.62,-171 398.06,-171 398.06,-171 398.06,-171 398.06,-250 398.06,-250 398.06,-250 399.05,-250 399.05,-250"/>
<polygon fill="black" stroke="black" points="397.95,-253.5 407.95,-250 397.95,-246.5 397.95,-253.5"/>
</g>
<!-- JwtStrategy -->
<g id="node12" class="node">
<title>JwtStrategy</title>
<ellipse fill="#fdb462" stroke="black" cx="81" cy="-180" rx="56.76" ry="18"/>
<text text-anchor="middle" x="81" y="-175.8" font-family="Times,serif" font-size="14.00">JwtStrategy</text>
</g>
<!-- JwtStrategy&#45;&gt;AuthModule -->
<g id="edge14" class="edge">
<title>JwtStrategy&#45;&gt;AuthModule</title>
<path fill="none" stroke="black" d="M81,-198.04C81,-205.75 81,-213 81,-213 81,-213 437.41,-213 437.41,-213 437.41,-213 437.41,-227.51 437.41,-227.51"/>
<polygon fill="black" stroke="black" points="433.91,-227.51 437.41,-237.51 440.91,-227.51 433.91,-227.51"/>
</g>
<!-- RoadWorthinessService -->
<g id="node14" class="node">
<title>RoadWorthinessService</title>
<ellipse fill="#fdb462" stroke="black" cx="1088" cy="-104" rx="104.21" ry="18"/>
<text text-anchor="middle" x="1088" y="-99.8" font-family="Times,serif" font-size="14.00">RoadWorthinessService</text>
</g>
<!-- RoadWorthinessService&#45;&gt;RoadWorthinessModule -->
<g id="edge17" class="edge">
<title>RoadWorthinessService&#45;&gt;RoadWorthinessModule</title>
<path fill="none" stroke="black" d="M1031.05,-119.27C1031.05,-133.98 1031.05,-154 1031.05,-154 1031.05,-154 824.93,-154 824.93,-154 824.93,-154 824.93,-154.79 824.93,-154.79"/>
<polygon fill="black" stroke="black" points="821.43,-151.94 824.93,-161.94 828.43,-151.94 821.43,-151.94"/>
</g>
</g>
</svg>
